<svg width="40" height="40" viewBox="0 0 40 40" fill="none" xmlns="http://www.w3.org/2000/svg">
<path d="M27.3536 14.7636L27.7071 14.41L27.3536 14.0564L25.9436 12.6464L25.59 12.2929L25.2364 12.6464L20 17.8829L14.7636 12.6464L14.41 12.2929L14.0564 12.6464L12.6464 14.0564L12.2929 14.41L12.6464 14.7636L17.8829 20L12.6464 25.2364L12.2929 25.59L12.6464 25.9436L14.0564 27.3536L14.41 27.7071L14.7636 27.3536L20 22.1171L25.2364 27.3536L25.59 27.7071L25.9436 27.3536L27.3536 25.9436L27.7071 25.59L27.3536 25.2364L22.1171 20L27.3536 14.7636Z" fill="#666666" stroke="white"/>
</svg>
